PathFileType	4	(X/Y/Z)	C:\Users\willi\Documents\UniDataLokal\DATA_Hans_PhD\TD04\B\3DGAIT_B_W12\marker_experimental.trc
DataRate	CameraRate	NumFrames	NumMarkers	Units	OrigDataRate	OrigDataStartFrame	OrigNumFrames
100.000000	100.000000	4	97	mm	100.000000	167	191
Frame#	Time	RBAK			C7			CLAV			T10			STRN			RASI			RPSI			LPSI			LASI			LPELV			RPELV			RTHI1			RTHI2			RTHI3			RTHI			RKNE			RKNEM			RPAT			RLKNEL			RLKNEM			RLPAT			RTIB1			RTIB2			RTIB3			RTIB			RANK			RANKM			RHEEL			RTOE			RM5			LTHI1			LTHI2			LTHI3			LTHI			LKNE			LKNEM			LPAT			LLKNE			LLKNEM			LLPAT			LTIB1			LTIB2			LTIB3			LTIB			LANK			LANKM			LHEEL			LTOE			LM5			*49			*50			*51			*52			*53			*54			*55			*56			*57			*58			*59			*60			*61			*62			*63			*64			*65			*66			*67			*68			*69			*70			*71			*72			*73			*74			*75			*76			*77			*78			*79			*80			*81			*82			*83			*84			*85			*86			*87			*88			*89			*90			*91			*92			*93			*94			*95			*96			
		X1	Y1	Z1	X2	Y2	Z2	X3	Y3	Z3	X4	Y4	Z4	X5	Y5	Z5	X6	Y6	Z6	X7	Y7	Z7	X8	Y8	Z8	X9	Y9	Z9	X10	Y10	Z10	X11	Y11	Z11	X12	Y12	Z12	X13	Y13	Z13	X14	Y14	Z14	X15	Y15	Z15	X16	Y16	Z16	X17	Y17	Z17	X18	Y18	Z18	X19	Y19	Z19	X20	Y20	Z20	X21	Y21	Z21	X22	Y22	Z22	X23	Y23	Z23	X24	Y24	Z24	X25	Y25	Z25	X26	Y26	Z26	X27	Y27	Z27	X28	Y28	Z28	X29	Y29	Z29	X30	Y30	Z30	X31	Y31	Z31	X32	Y32	Z32	X33	Y33	Z33	X34	Y34	Z34	X35	Y35	Z35	X36	Y36	Z36	X37	Y37	Z37	X38	Y38	Z38	X39	Y39	Z39	X40	Y40	Z40	X41	Y41	Z41	X42	Y42	Z42	X43	Y43	Z43	X44	Y44	Z44	X45	Y45	Z45	X46	Y46	Z46	X47	Y47	Z47	X48	Y48	Z48	X49	Y49	Z49	X50	Y50	Z50	X51	Y51	Z51	X52	Y52	Z52	X53	Y53	Z53	X54	Y54	Z54	X55	Y55	Z55	X56	Y56	Z56	X57	Y57	Z57	X58	Y58	Z58	X59	Y59	Z59	X60	Y60	Z60	X61	Y61	Z61	X62	Y62	Z62	X63	Y63	Z63	X64	Y64	Z64	X65	Y65	Z65	X66	Y66	Z66	X67	Y67	Z67	X68	Y68	Z68	X69	Y69	Z69	X70	Y70	Z70	X71	Y71	Z71	X72	Y72	Z72	X73	Y73	Z73	X74	Y74	Z74	X75	Y75	Z75	X76	Y76	Z76	X77	Y77	Z77	X78	Y78	Z78	X79	Y79	Z79	X80	Y80	Z80	X81	Y81	Z81	X82	Y82	Z82	X83	Y83	Z83	X84	Y84	Z84	X85	Y85	Z85	X86	Y86	Z86	X87	Y87	Z87	X88	Y88	Z88	X89	Y89	Z89	X90	Y90	Z90	X91	Y91	Z91	X92	Y92	Z92	X93	Y93	Z93	X94	Y94	Z94	X95	Y95	Z95	X96	Y96	Z96	X97	Y97	Z97	

168	1.67	232.0801239013672	1322.578125	298.1320495605469	266.8914489746094	1366.036499023438	200.9053039550782	372.7504272460938	1280.1748046875	210.2855224609375	234.2294464111329	986.4598999023438	205.501953125	426.5354614257813	1036.375854492188	210.198471069336	391.5677795410157	887.397216796875	325.1615600585938	218.7157745361328	910.2901611328125	252.5229339599609	218.6579589843751	912.6732177734375	163.5654754638672	410.9116210937501	879.7619018554688	117.6303100585938	322.6410827636719	951.897705078125	60.4755439758301	287.1390380859376	958.0926513671875	354.1914672851562	335.4513854980469	609.07666015625	341.4683837890625	395.2714233398438	578.567626953125	368.5062866210938	385.1856079101563	521.8946533203125	330.9697875976562	454.2153015136719	573.2177734375	415.9527587890625	487.3381347656251	485.2133789062499	364.1383972167969	503.1909179687501	472.4079895019531	236.1640625	558.0137939453125	473.8687744140624	313.0596313476563	475.6206359863281	454.4830627441406	358.4160461425782	479.7605285644531	427.0265502929687	236.5405578613282	507.8539733886719	398.7985534667968	323.6960144042969	437.1105041503906	310.9368896484375	319.1751708984375	381.2413330078125	299.2906188964844	349.0450439453125	376.2858581542969	239.966796875	313.0892333984375	298.3560791015625	291.5071105957031	361.7762756347656	258.6268920898438	178.9928588867187	313.6254577636719	310.0821838378906	162.5936126708984	256.22607421875	220.4217529296875	161.1207275390625	256.9680786132812	338.1558837890625	75.15222167968749	356.1512145996094	302.0563659667969	79.92742919921874	377.6953735351562	279.3800354003907	621.91064453125	68.81605529785158	323.5810546875001	573.3923950195312	59.43056106567385	284.1453857421876	526.2752685546875	84.86527252197267	365.8331604003907	540.3358154296875	31.57338905334475	349.6429138183594	442.3664245605469	92.53244781494143	298.6708679199219	441.7568359375	209.0303192138672	391.613037109375	444.4400024414062	172.9583435058594	329.4794616699219	408.6242065429688	87.19661712646486	290.6627807617188	401.6302185058594	201.2161865234375	361.0934448242188	376.5699462890625	151.8236236572266	337.3383483886719	243.557861328125	154.7018280029297	320.2380676269531	192.4047241210937	111.5087509155274	319.5625305175781	149.3316497802734	158.6507568359375	273.8699951171875	178.651382446289	53.6869468688965	264.5317077636719	65.8261032104492	117.0269241333008	282.9180908203125	74.17518615722655	190.2420806884766	214.4997863769531	30.7644863128662	158.4086151123047	406.6442260742188	32.46847915649411	123.0793228149414	375.1387023925781	8.864590644836403	86.82474517822268	nan	nan	nan	nan	nan	nan	nan	nan	nan	nan	nan	nan	nan	nan	nan	nan	nan	nan	nan	nan	nan	nan	nan	nan	nan	nan	nan	nan	nan	nan	nan	nan	nan	nan	nan	nan	nan	nan	nan	nan	nan	nan	nan	nan	nan	nan	nan	nan	nan	nan	nan	nan	nan	nan	nan	nan	nan	nan	nan	nan	nan	nan	nan	nan	nan	nan	nan	nan	nan	nan	nan	nan	nan	nan	nan	nan	nan	nan	nan	nan	nan	nan	nan	nan	nan	nan	nan	nan	nan	nan	nan	nan	nan	nan	nan	nan	nan	nan	nan	nan	nan	nan	nan	nan	nan	nan	nan	nan	nan	nan	nan	nan	nan	nan	nan	nan	nan	nan	nan	nan	nan	nan	nan	nan	nan	nan	nan	nan	nan	nan	nan	nan	nan	nan	nan	nan	nan	nan	nan	nan	nan	nan	nan	nan	
169	1.68	241.7542114257813	1322.318237304688	297.7662658691406	277.0356140136719	1365.747680664062	200.714584350586	382.7195129394532	1279.774047851562	210.247802734375	243.7332153320313	986.2149047851562	205.2029571533203	436.1766967773438	1036.0185546875	209.6927947998047	401.4157104492188	887.7726440429688	324.6320190429688	228.246566772461	910.09521484375	252.6551818847656	227.9065551757813	912.2736206054688	163.7696075439453	419.9061279296876	879.0057983398438	117.0956039428711	331.7854614257813	951.15478515625	60.2155342102051	296.8297729492188	958.2637939453125	353.9424743652344	347.9004821777344	609.5701904296875	343.0535888671875	408.8809204101563	580.0517578125	369.3041381835938	398.7297363281251	523.306396484375	332.2060546875	468.7031250000001	575.8023681640625	415.8267517089844	501.9759826660157	487.7267456054687	363.6914367675782	516.7286376953125	474.9640197753906	235.9974212646485	572.5266723632812	478.1673889160156	312.2626037597657	490.9280395507812	456.4265441894531	358.2769775390626	494.7732238769531	428.9369201660156	236.7799072265625	525.049560546875	401.9379272460937	323.4760131835938	459.4277648925781	310.8757934570312	319.6307373046875	404.3510131835938	295.9143981933594	349.7565307617188	402.4772644042969	236.45458984375	313.898681640625	322.0417175292969	283.5065612792969	363.003662109375	288.3628540039062	168.8401947021484	315.186767578125	340.4535217285156	155.1729431152343	257.7080383300781	250.9246826171875	148.4313507080078	258.7376403808594	374.0785217285156	70.63400268554685	357.4896240234375	337.7637023925781	72.98450469970702	379.2389221191406	284.9498291015626	622.4284057617188	69.43879699707033	328.3550415039063	573.2244262695312	59.50156021118166	288.3733215332032	526.6756591796875	85.13284301757814	369.9929199218751	539.7054443359375	31.25374603271487	352.7962341308594	441.7278137207031	92.10260772705081	302.2691040039062	441.7018737792969	208.9703521728516	395.2716979980469	442.9731750488281	172.0404510498047	332.2799682617188	408.2416076660156	87.00359344482423	293.4190063476562	401.7113952636719	201.0545196533203	363.7127685546875	375.7929992675781	151.447998046875	338.9530944824219	243.1528015136718	154.6246032714844	321.3659362792969	192.1064300537109	111.4794387817383	320.4341125488281	149.0846710205078	158.6408081054688	274.8885498046875	178.6872100830078	53.73032379150392	264.6161499023438	65.92924499511717	117.1812515258789	283.0469665527344	74.23937988281249	190.3960113525391	214.5320739746094	30.95773124694823	158.5973052978516	406.7417602539062	32.39918136596677	123.0501708984375	375.1127624511719	8.824296951293922	86.80635833740237	nan	nan	nan	nan	nan	nan	nan	nan	nan	nan	nan	nan	nan	nan	nan	nan	nan	nan	nan	nan	nan	nan	nan	nan	nan	nan	nan	nan	nan	nan	nan	nan	nan	nan	nan	nan	nan	nan	nan	nan	nan	nan	nan	nan	nan	nan	nan	nan	nan	nan	nan	nan	nan	nan	nan	nan	nan	nan	nan	nan	nan	nan	nan	nan	nan	nan	nan	nan	nan	nan	nan	nan	nan	nan	nan	nan	nan	nan	nan	nan	nan	nan	nan	nan	nan	nan	nan	nan	nan	nan	nan	nan	nan	nan	nan	nan	nan	nan	nan	nan	nan	nan	nan	nan	nan	nan	nan	nan	nan	nan	nan	nan	nan	nan	nan	nan	nan	nan	nan	nan	nan	nan	nan	nan	nan	nan	nan	nan	nan	nan	nan	nan	nan	nan	nan	nan	nan	nan	nan	nan	nan	nan	nan	nan	
170	1.69	251.433334350586	1321.878540039062	297.4661560058594	287.1750488281251	1365.294311523438	200.5935668945313	392.7041320800782	1279.215087890625	210.2674102783203	253.2914581298829	985.7974243164062	205.02783203125	445.8619995117188	1035.4853515625	209.2566375732422	411.4035339355469	887.9164428710938	324.1377258300781	237.8792572021485	909.7171630859375	252.8960113525391	237.1913604736329	911.72021484375	164.0882720947266	428.9195251464844	878.1132202148438	116.5679321289063	340.8992309570313	950.2698974609375	60.01412582397463	306.6556091308594	958.206298828125	353.7767333984375	359.9711914062501	609.8617553710938	344.5006713867188	421.9217224121094	581.1519165039062	369.9834594726562	411.7051391601563	524.334228515625	333.3237915039062	482.5159912109376	577.8031005859375	415.6199035644532	515.8483276367188	489.6428527832031	363.2484130859376	529.6085815429688	476.8676757812499	235.8439636230469	586.2647094726562	481.8034057617187	311.4396362304688	505.5126342773438	457.8025817871093	358.2054443359376	509.1307067871094	430.1852722167968	237.044662475586	541.5150756835938	404.6463317871093	323.2774963378907	481.4353332519531	310.5833435058593	320.2185363769532	427.4481506347656	292.2543029785156	350.6875915527344	428.7776794433594	232.8106536865234	314.96142578125	345.9981994628906	275.1106262207031	364.4665832519531	318.8183288574219	158.4867401123047	317.1321411132812	371.365234375	147.674819946289	259.5297546386719	282.3348083496094	135.538345336914	260.9046630859375	410.4265747070312	66.3504943847656	359.3241577148438	374.0586853027344	66.32872772216794	381.2744445800781	290.6118469238282	622.8389892578125	70.07987213134767	333.2439880371094	572.980224609375	59.6161575317383	292.7416076660157	526.9840698242188	85.43851470947267	374.3092041015626	539.0151977539062	31.0155773162842	356.1156616210938	441.04443359375	91.77600097656253	306.0448608398438	441.59912109375	208.9890441894532	399.091552734375	441.4565124511719	171.2292785644532	335.245361328125	407.8186950683594	86.91026306152345	296.3563537597656	401.7537841796875	201.0199432373047	366.47021484375	374.9552001953125	151.1636810302735	340.6512756347656	242.704360961914	154.6238403320313	322.565185546875	191.7742919921875	111.526481628418	321.3477172851562	148.7940216064453	158.7095184326172	276.0389404296875	178.7216033935547	53.82841110229494	264.7377014160156	66.05371093749999	117.3687133789063	283.2318115234375	74.2777862548828	190.6004180908203	214.5368347167969	31.16987800598143	158.8233032226562	406.862060546875	32.3349914550781	123.0310211181641	375.0782470703125	8.778984069824196	86.80767822265628	nan	nan	nan	nan	nan	nan	nan	nan	nan	nan	nan	nan	nan	nan	nan	nan	nan	nan	nan	nan	nan	nan	nan	nan	nan	nan	nan	nan	nan	nan	nan	nan	nan	nan	nan	nan	nan	nan	nan	nan	nan	nan	nan	nan	nan	nan	nan	nan	nan	nan	nan	nan	nan	nan	nan	nan	nan	nan	nan	nan	nan	nan	nan	nan	nan	nan	nan	nan	nan	nan	nan	nan	nan	nan	nan	nan	nan	nan	nan	nan	nan	nan	nan	nan	nan	nan	nan	nan	nan	nan	nan	nan	nan	nan	nan	nan	nan	nan	nan	nan	nan	nan	nan	nan	nan	nan	nan	nan	nan	nan	nan	nan	nan	nan	nan	nan	nan	nan	nan	nan	nan	nan	nan	nan	nan	nan	nan	nan	nan	nan	nan	nan	nan	nan	nan	nan	nan	nan	nan	nan	nan	nan	nan	nan	
171	1.7	261.1280517578126	1321.263671875	297.2375793457031	297.3135375976563	1364.682250976562	200.5458374023438	402.7094421386719	1278.50244140625	210.3485717773438	262.9097290039063	985.2119140625	204.9791870117188	455.5929260253907	1034.7783203125	208.8907012939453	421.5387573242188	887.8278198242188	323.6727905273438	247.6194305419922	909.1605834960938	253.2452850341797	246.5184631347657	911.0159301757812	164.5210723876953	437.9521789550782	877.0929565429688	116.0411376953125	349.9700927734376	949.2512817382812	59.86930847167971	316.6336975097657	957.9249267578125	353.6978149414062	371.6433715820313	609.9321899414062	345.785888671875	434.3599548339844	581.8329467773438	370.5318603515625	424.0779113769532	524.9429931640625	334.3106994628906	495.5969543457032	579.1614990234375	415.3438415527344	528.9330444335938	490.9185485839843	362.8244934082032	541.8389282226562	478.0858154296874	235.7096862792969	599.2164306640625	484.7220458984374	310.6041564941407	519.3585815429688	458.5843505859374	358.2080688476563	522.8270263671875	430.7505187988281	237.3279418945313	557.2220458984375	406.8958129882812	323.1042175292969	503.0748901367188	310.1096801757812	320.9263610839844	450.4905700683594	288.4102478027344	351.8214111328125	455.1273498535156	229.1511077880859	316.2571411132812	370.2265319824219	266.4457397460938	366.1564025878906	349.9630126953125	148.1239929199218	319.4378051757812	402.7605895996094	140.2812805175781	261.6547241210938	314.6180725097656	122.6554794311523	263.4375915527344	447.1297302246094	62.45709609985349	361.6139831542969	410.8706359863281	60.12746810913083	383.7568664550781	296.3819885253907	623.1388549804688	70.7433319091797	338.2624816894532	572.656982421875	59.77624511718752	297.2698974609376	527.1966552734375	85.7946243286133	378.8002624511719	538.2592163085938	30.86368751525881	359.6180725097656	440.3150634765625	91.5612716674805	310.0919189453125	441.4356689453125	209.1200561523438	403.0941467285156	439.8916931152344	170.5321960449219	338.3903198242188	407.3531494140625	86.92317199707033	299.6291809082031	401.7400512695312	201.1677551269532	369.3852233886719	374.0548706054688	150.9747924804688	342.4416198730469	242.2093200683593	154.7041931152344	323.8395080566406	191.4081726074218	111.6546859741211	322.3016357421875	148.4541625976562	158.8645935058594	277.3065490722656	178.7574310302734	53.99163055419923	264.8990478515625	66.20413970947264	117.5972213745117	283.4779052734375	74.28986358642577	190.8600463867188	214.5243988037109	31.40004348754881	159.0913543701172	407.0011596679688	32.27877426147458	123.0203323364258	375.0357971191406	8.734006881713844	86.82801818847659	nan	nan	nan	nan	nan	nan	nan	nan	nan	nan	nan	nan	nan	nan	nan	nan	nan	nan	nan	nan	nan	nan	nan	nan	nan	nan	nan	nan	nan	nan	nan	nan	nan	nan	nan	nan	nan	nan	nan	nan	nan	nan	nan	nan	nan	nan	nan	nan	nan	nan	nan	nan	nan	nan	nan	nan	nan	nan	nan	nan	nan	nan	nan	nan	nan	nan	nan	nan	nan	nan	nan	nan	nan	nan	nan	nan	nan	nan	nan	nan	nan	nan	nan	nan	nan	nan	nan	nan	nan	nan	nan	nan	nan	nan	nan	nan	nan	nan	nan	nan	nan	nan	nan	nan	nan	nan	nan	nan	nan	nan	nan	nan	nan	nan	nan	nan	nan	nan	nan	nan	nan	nan	nan	nan	nan	nan	nan	nan	nan	nan	nan	nan	nan	nan	nan	nan	nan	nan	nan	nan	nan	nan	nan	nan	
